<svg viewBox="0 0 517 564" fill="none" xmlns="http://www.w3.org/2000/svg">
  <g filter="url(#filter0_d_2_126)">
    <path
      d="M33.5211 90.8624C-85.7445 279.7 190.306 462.695 259.878 555.31C204.221 309.428 77.4628 315.784 99.806 168.319L33.5211 90.8624Z"
      fill="#F552B8" />
    <path
      d="M296.676 183.626L390.944 427.472L33.8033 10.4272C326.723 197.156 208.614 135.811 449.387 4.12643e-05L296.676 183.626Z"
      fill="#F552B8" />
    <path
      d="M482.48 484.421C529.568 407.373 431.934 155.802 404.362 130.199C404.362 130.199 437.132 105.622 481.818 81.0443C497.506 121.312 542.401 431.203 482.48 484.421Z"
      fill="#F552B8" />
    <rect x="194.662" y="0.00012207" width="102.779" height="102.779" rx="51.3894" fill="#F552B8" />
  </g>
  <defs>
    <filter id="filter0_d_2_126" x="0" y="0" width="516.74" height="563.31" filterUnits="userSpaceOnUse"
      color-interpolation-filters="sRGB">
      <feFlood flood-opacity="0" result="BackgroundImageFix" />
      <feColorMatrix in="SourceAlpha" type="matrix" values="0 0 0 0 0 0 0 0 0 0 0 0 0 0 0 0 0 0 127 0"
        result="hardAlpha" />
      <feOffset dy="4" />
      <feGaussianBlur stdDeviation="2" />
      <feComposite in2="hardAlpha" operator="out" />
      <feColorMatrix type="matrix" values="0 0 0 0 0 0 0 0 0 0 0 0 0 0 0 0 0 0 0.25 0" />
      <feBlend mode="normal" in2="BackgroundImageFix" result="effect1_dropShadow_2_126" />
      <feBlend mode="normal" in="SourceGraphic" in2="effect1_dropShadow_2_126" result="shape" />
    </filter>
  </defs>
</svg>