<svg viewBox="0 0 28 28" fill="none" xmlns="http://www.w3.org/2000/svg">
  <path
    d="M0.782739 0.782739C1.28408 0.281551 1.96395 0 2.67284 0C3.38174 0 4.06161 0.281551 4.56295 0.782739L14.0161 10.2359L23.4693 0.782739C23.9735 0.295755 24.6489 0.0262902 25.3498 0.0323814C26.0508 0.0384726 26.7213 0.319633 27.217 0.815305C27.7126 1.31098 27.9938 1.9815 27.9999 2.68246C28.006 3.38343 27.7365 4.05874 27.2495 4.56295L17.7963 14.0161L27.2495 23.4693C27.7365 23.9735 28.006 24.6489 27.9999 25.3498C27.9938 26.0508 27.7126 26.7213 27.217 27.217C26.7213 27.7126 26.0508 27.9938 25.3498 27.9999C24.6489 28.006 23.9735 27.7365 23.4693 27.2495L14.0161 17.7963L4.56295 27.2495C4.05874 27.7365 3.38343 28.006 2.68246 27.9999C1.9815 27.9938 1.31098 27.7126 0.815305 27.217C0.319633 26.7213 0.0384726 26.0508 0.0323814 25.3498C0.0262902 24.6489 0.295755 23.9735 0.782739 23.4693L10.2359 14.0161L0.782739 4.56295C0.281551 4.06161 0 3.38174 0 2.67284C0 1.96395 0.281551 1.28408 0.782739 0.782739V0.782739Z"
    fill="#F552B8" />
</svg>