<svg width="385" height="392" viewBox="0 0 385 392" fill="none" xmlns="http://www.w3.org/2000/svg">
<g filter="url(#filter0_d_302_2)">
<rect x="4" width="377" height="377" rx="188.5" fill="#27194C"/>
</g>
<path d="M40.8188 80.0001C-39.2495 206.775 146.076 329.628 192.782 391.805C155.417 226.733 70.3188 231 85.3188 132L40.8188 80.0001Z" fill="#F552B8"/>
<path d="M217.486 142.277L280.773 305.981L41.0082 26.0002C237.659 151.36 158.366 110.176 320.008 19.0001L217.486 142.277Z" fill="#F552B8"/>
<path d="M342.225 344.214C373.837 292.488 308.292 123.597 289.781 106.409C289.781 106.409 311.781 89.9087 341.781 73.4087C352.313 100.442 382.453 308.486 342.225 344.214Z" fill="#F552B8"/>
<rect x="149" y="19.0001" width="69" height="69" rx="34.5" fill="#F552B8"/>
<defs>
<filter id="filter0_d_302_2" x="0" y="0" width="385" height="385" filterUnits="userSpaceOnUse" color-interpolation-filters="sRGB">
<feFlood flood-opacity="0" result="BackgroundImageFix"/>
<feColorMatrix in="SourceAlpha" type="matrix" values="0 0 0 0 0 0 0 0 0 0 0 0 0 0 0 0 0 0 127 0" result="hardAlpha"/>
<feOffset dy="4"/>
<feGaussianBlur stdDeviation="2"/>
<feComposite in2="hardAlpha" operator="out"/>
<feColorMatrix type="matrix" values="0 0 0 0 0 0 0 0 0 0 0 0 0 0 0 0 0 0 0.25 0"/>
<feBlend mode="normal" in2="BackgroundImageFix" result="effect1_dropShadow_302_2"/>
<feBlend mode="normal" in="SourceGraphic" in2="effect1_dropShadow_302_2" result="shape"/>
</filter>
</defs>
</svg>
