<svg width="27" height="36" viewBox="0 0 27 36" fill="none" xmlns="http://www.w3.org/2000/svg">
  <path
    d="M26.2224 19.4822C26.4622 19.317 26.6583 19.096 26.7938 18.8383C26.9292 18.5805 27 18.2936 27 18.0024C27 17.7112 26.9292 17.4244 26.7938 17.1666C26.6583 16.9088 26.4622 16.6879 26.2224 16.5227L2.82401 0.321453C2.55413 0.133922 2.23802 0.0239524 1.91004 0.00348655C1.58205 -0.0169793 1.25473 0.0528449 0.963641 0.205372C0.672549 0.357899 0.428816 0.587292 0.258925 0.868633C0.0890348 1.14997 -0.000516893 1.4725 7.36345e-07 1.80117L2.1527e-06 34.2037C0.00135641 34.5316 0.0920598 34.853 0.262357 35.1332C0.432655 35.4134 0.676104 35.6418 0.966523 35.794C1.25694 35.9462 1.58334 36.0163 1.91063 35.9968C2.23791 35.9773 2.55369 35.869 2.82401 35.6834L26.2224 19.4822Z" />
</svg>