<svg viewBox="0 0 41 36" fill="none" xmlns="http://www.w3.org/2000/svg">
  <path
    d="M33.0384 36C35.406 33.639 37.2837 30.8333 38.5635 27.7442C39.8434 24.6552 40.5001 21.3437 40.496 18C40.5001 14.6563 39.8434 11.3448 38.5635 8.25577C37.2837 5.16672 35.406 2.36105 33.0384 0L30.918 2.11747C33.0071 4.20077 34.6638 6.67639 35.793 9.40206C36.9223 12.1277 37.5017 15.0497 37.498 18C37.498 24.2027 34.9822 29.8183 30.918 33.8825L33.0384 36V36Z" />
  <path
    d="M28.8006 31.7653C30.611 29.9596 32.0468 27.814 33.0254 25.4518C34.004 23.0895 34.5062 20.5572 34.5031 18.0002C34.5062 15.4433 34.004 12.9109 33.0254 10.5487C32.0468 8.18641 30.611 6.04081 28.8006 4.23517L26.6831 6.35264C28.215 7.88053 29.4299 9.69608 30.2579 11.695C31.0859 13.6938 31.5108 15.8366 31.5081 18.0002C31.5116 20.1641 31.0874 22.3074 30.2598 24.3068C29.4323 26.3062 28.2178 28.1223 26.6861 29.6508L28.8006 31.7653Z" />
  <path
    d="M26.008 23.6741C25.3306 25.3096 24.3367 26.7951 23.0833 28.0453L20.9658 25.9278C21.9405 24.9553 22.7135 23.7999 23.2403 22.5278C23.7671 21.2557 24.0374 19.892 24.0357 18.5152C24.0376 17.1383 23.7674 15.7746 23.2405 14.5025C22.7137 13.2304 21.9407 12.0749 20.9658 11.1025L23.0833 8.98505C24.3367 10.2352 25.3306 11.7207 26.008 13.3562C26.6855 14.9917 27.033 16.7449 27.0307 18.5152C27.033 20.2854 26.6855 22.0387 26.008 23.6741Z" />
  <path
    d="M17.1225 6.13815C17.3762 6.26037 17.5903 6.45166 17.7402 6.69005C17.8901 6.92845 17.9698 7.20428 17.97 7.4859V31.446C17.9696 31.7278 17.8898 32.0037 17.7395 32.2421C17.5893 32.4805 17.3749 32.6717 17.1209 32.7937C16.8669 32.9157 16.5836 32.9636 16.3036 32.9318C16.0236 32.9 15.7583 32.7899 15.5381 32.614L8.4609 26.9535H1.4975C1.10034 26.9535 0.719445 26.7957 0.438609 26.5148C0.157772 26.234 0 25.8531 0 25.456V13.4759C0 13.0788 0.157772 12.6979 0.438609 12.417C0.719445 12.1362 1.10034 11.9784 1.4975 11.9784H8.4609L15.5381 6.31785C15.7585 6.14171 16.0241 6.03138 16.3044 5.99959C16.5847 5.9678 16.8683 6.01583 17.1225 6.13815Z" />
</svg>